<svg xmlns="http://www.w3.org/2000/svg" version="1.1" xmlns:xlink="http://www.w3.org/1999/xlink" xmlns:svgjs="http://svgjs.dev/svgjs" width="1000" height="1000" viewBox="0 0 1000 1000"><rect width="1000" height="1000" fill="#000000"></rect><g transform="matrix(0.7,0,0,0.7,150.0000000000001,106.25)"><svg viewBox="0 0 320 360" data-background-color="#ffffff" preserveAspectRatio="xMidYMid meet" height="1125" width="1000" xmlns="http://www.w3.org/2000/svg" xmlns:xlink="http://www.w3.org/1999/xlink"><g id="tight-bounds" transform="matrix(1,0,0,1,0,0)"><svg viewBox="0 0 320 360" height="360" width="320"><g><svg></svg></g><g><svg viewBox="0 0 320 360" height="360" width="320"><g><path xmlns="http://www.w3.org/2000/svg" d="M20.961 227.22l3.726 4.658-1.863-6.056c-0.466-2.795-3.726 0.466-1.863 1.398M25.153 224.425c1.397 2.329 2.795 4.658 2.795 6.987 0 3.261 2.795 4.658 5.123 5.589-3.261-3.726-5.124-13.974-7.918-12.576M204.017 26.929c7.918 0 15.371-0.932 23.756 0.931 20.495 5.124 37.729 15.371 49.374 29.811l32.606 52.169c1.397 13.042 4.192 27.482 3.726 43.319 3.261 0 2.795-4.658 6.521-5.59-3.726 9.316-5.59 20.961-6.521 34.469-2.329-7.453 0-18.632 0.466-24.687-3.261 5.124-5.124 1.397-5.124-0.932 0.466-3.726-1.397-3.261-2.795-4.658-5.124-4.658-8.384-9.782-12.11-17.7 2.329-6.055 2.795-14.905-4.658-19.563-2.329-1.397-5.124-3.726-6.521-7.453-1.863-5.124-5.124-11.179-4.193-19.097 0.466-2.329-6.987 5.124-11.179 1.863-18.166-12.576-36.332-27.016-58.224-39.127-11.645 0-20.029-4.192-24.221-9.316-3.726-4.658-0.932-10.713 4.658-11.179 3.261 0 6.987-0.932 9.782 0.932 0.466-1.863 2.329-4.192 4.657-4.192M157.904 16.215l0.932 0.466c4.658 0.932 6.987 7.453 12.11 5.124 0 3.261 0.466 6.521-0.466 8.85-1.397 3.726-5.59 3.726-8.85 3.726-31.208-1.863-49.374 11.179-68.471 22.358-5.124 3.261-10.713 5.59-14.906 9.782-20.029 18.632-41.921 35.866-47.045 70.335l-4.192 38.195c-0.466 4.192-5.124 8.384-4.192 13.508l3.26 22.824c-3.261-3.261-5.124 0.932-4.192 2.795 0.466 1.397 2.329 6.055 5.124 1.863 3.726 6.987 7.453 20.495 12.576 26.55 15.837 18.632 36.332 35.4 53.101 52.169 4.192-0.932 7.453-0.932 8.384-3.727 1.397 2.795-1.397 5.59-3.726 6.056 7.453 4.658 15.837 8.85 27.016 9.781 14.44 0.932 27.948 3.261 40.524 6.522 6.521-1.863 13.042-2.795 20.029-3.261 2.329 0 3.726-3.726 6.521-4.658l0.466-4.658c2.795 4.192 2.329-1.397 0.466-4.192 3.261 2.795 4.192 5.124 5.589 6.987 0-1.397 3.726-6.521 3.727-0.466l0.931-6.055c1.397-0.932 1.863 5.124 3.261 0.931 1.397-4.192 4.192-0.932 6.987-2.329-0.932 1.863-0.466 5.59 2.794 3.261l3.727-3.261c2.329 5.59 6.055 3.261 7.918 2.329 20.495-13.042 40.99-28.413 60.553-43.784l-0.466 6.055 2.329-7.453c2.329 2.329 4.192 0.466 5.124-0.931 2.795-4.658 6.521-9.316 12.577-13.508-7.453 20.029-16.303 35.866-27.482 48.908l-4.658 5.59c0 3.261-0.932 7.453-4.658 7.918-1.863 0.466-5.59-0.932-8.384 1.863-1.397 1.863 3.261 5.59-0.466 2.795-3.261-2.329-6.521 0-10.248 0.932-2.795 0.932 1.863 3.726 2.795 5.589 0.932 1.863 1.863 3.726 1.398 6.056l-5.124-5.59c-6.055 3.261-9.782 9.316-14.906 13.974-2.329 1.863-1.397 5.124-1.397 7.918-3.261 0-6.987-0.932-8.85 0.932-1.397 1.863-0.932 4.658-0.932 7.453-4.658-0.466-5.124-7.453-9.315-6.056-4.192 0.932-8.85 1.397-12.577 3.727 2.795 5.59-4.658 2.329-3.726 3.26-6.987-4.192-13.042-7.453-20.495-4.658-15.837-5.124-35.4-2.795-49.84-0.931 0-2.329 0.466-4.658-0.466-5.124-0.932 2.329-3.726 1.397-3.26 1.397-8.85-6.055-17.7-9.782-27.016-14.905-8.384 0.932-16.303-3.261-18.632-5.59-6.521-6.055-13.974-2.795-20.029-4.192-13.042-3.261-17.7-16.769-19.098-26.084-0.932-4.658-4.658-6.521-6.055-6.056-6.055-19.563-15.371-37.263-22.824-55.429-1.863-4.658-1.397-9.316-1.397-14.44 2.329 0.932 4.658 0.466 4.192-2.794-2.329-15.371-7.918-27.016-13.974-38.195 3.261-15.837 3.726-34.469 11.179-48.443 6.521-12.576 18.632-19.098 27.016-29.811 2.795-3.726 2.795-8.85 5.59-12.11 9.316-9.316 18.632-19.098 28.879-27.482 4.658-3.726 10.247 0 17.234-1.397 2.329-8.384 11.645-15.837 20.495-13.508 3.726 0.932 11.179-8.85 13.508-9.782 3.726-1.397 1.863 3.726 1.863 6.987 8.85-6.987 20.961-10.713 32.14-14.906" fill="#ffffff" fill-rule="nonzero" stroke="none" stroke-width="1" stroke-linecap="butt" stroke-linejoin="miter" stroke-miterlimit="10" stroke-dasharray="" stroke-dashoffset="0" font-family="none" font-weight="none" font-size="none" text-anchor="none" style="mix-blend-mode: normal" data-fill-palette-color="tertiary"></path></g><g transform="matrix(1,0,0,1,64,165.2495511669659)"><svg viewBox="0 0 192 29.500897666068223" height="29.500897666068223" width="192"><g><svg viewBox="0 0 192 29.500897666068223" height="29.500897666068223" width="192"><g><svg viewBox="0 0 192 29.500897666068223" height="29.500897666068223" width="192"><g><svg viewBox="0 0 192 29.500897666068223" height="29.500897666068223" width="192"><g id="textblocktransform"><svg viewBox="0 0 192 29.500897666068223" height="29.500897666068223" width="192" id="textblock"><g><svg viewBox="0 0 192 29.500897666068223" height="29.500897666068223" width="192"><g transform="matrix(1,0,0,1,0,0)"><svg width="192" viewBox="3.1700000762939453 -24.579999923706055 163.1699981689453 25.06999969482422" height="29.500897666068223" data-palette-color="#010c80"><path d="M14.4-24.58L14.4-24.58Q14.92-24.58 15.37-24.57 15.82-24.56 16.25-24.51 16.67-24.46 16.98-24.44 17.29-24.41 17.69-24.34 18.09-24.27 18.27-24.23 18.46-24.19 18.88-24.08 19.31-23.97 19.41-23.95 19.51-23.93 19.98-23.78 20.46-23.63 20.53-23.61L20.53-23.61 19.51-20.56Q16.24-21.46 13.75-21.46L13.75-21.46Q12.3-21.46 11.19-21.17 10.08-20.87 9.48-20.46 8.89-20.04 8.51-19.49 8.13-18.95 8.02-18.53 7.91-18.12 7.91-17.72L7.91-17.72Q7.91-16.72 8.95-15.94 9.99-15.16 11.54-14.67 13.09-14.18 14.89-13.51 16.7-12.84 18.25-12.1 19.8-11.35 20.84-10.01 21.88-8.67 21.88-6.91L21.88-6.91Q21.88-5.91 21.62-4.97 21.36-4.03 20.64-3 19.92-1.98 18.79-1.23 17.65-0.49 15.75 0 13.84 0.49 11.38 0.49L11.38 0.49Q7.64 0.49 3.17-1.34L3.17-1.34 4.3-4.37Q6.81-3.44 8.41-3.05 10.01-2.66 11.55-2.66L11.55-2.66Q17.5-2.66 17.5-6.45L17.5-6.45Q17.5-7.28 16.92-7.91 16.33-8.54 15.36-8.95 14.38-9.35 13.15-9.78 11.91-10.21 10.63-10.57 9.35-10.94 8.12-11.54 6.88-12.13 5.91-12.85 4.93-13.57 4.35-14.72 3.76-15.87 3.76-17.31L3.76-17.31Q3.76-18.19 4.04-19.1 4.32-20.02 5.09-21.03 5.86-22.05 7.01-22.81 8.15-23.58 10.07-24.08 11.99-24.58 14.4-24.58ZM37.18-24.58L37.18-24.58Q39.87-24.58 41.73-23.96 43.6-23.34 44.61-22.14 45.63-20.95 46.07-19.48 46.51-18.02 46.51-16.11L46.51-16.11 46.51 0 43.67 0 42.75-2.2Q39.79 0.49 35.96 0.49L35.96 0.49Q32.54 0.49 30.17-1.57 27.81-3.64 27.81-6.4L27.81-6.4Q27.81-7.86 28.34-9.03 28.88-10.21 29.89-10.99 30.91-11.77 32.2-12.32 33.49-12.87 35.21-13.16 36.94-13.45 38.67-13.57 40.4-13.7 42.48-13.7L42.48-13.7 42.48-15.6Q42.48-16.43 42.42-17.04 42.36-17.65 42.01-18.51 41.67-19.36 41.09-19.91 40.5-20.46 39.33-20.86 38.16-21.26 36.55-21.26L36.55-21.26Q34.06-21.26 30.1-20.17L30.1-20.17 29.34-23.1Q33.35-24.58 37.18-24.58ZM42.48-5.13L42.48-10.67 40.99-10.67Q39.6-10.67 38.57-10.62 37.55-10.57 36.17-10.34 34.79-10.11 33.91-9.69 33.03-9.28 32.41-8.48 31.78-7.69 31.78-6.59L31.78-6.59Q31.78-5.05 33.33-3.86 34.89-2.66 37.03-2.66L37.03-2.66Q40.18-2.66 42.48-5.13L42.48-5.13ZM64.94-20.9L64.94-20.9Q62.84-20.9 59.3-19.04L59.3-19.04 59.3 0 55.29 0 55.29-24.12 58.1-24.12 58.95-22.12Q63.33-24.58 66.52-24.58L66.52-24.58Q70.21-24.58 72.31-21.9L72.31-21.9Q77.09-24.56 80.88-24.56L80.88-24.56Q82.71-24.56 84.1-24.06 85.49-23.56 86.36-22.69 87.23-21.83 87.78-20.52 88.33-19.21 88.53-17.76 88.74-16.31 88.74-14.48L88.74-14.48 88.74 0 84.74 0 84.74-14.75Q84.74-15.19 84.71-15.56 84.69-15.94 84.59-16.61 84.49-17.29 84.3-17.81 84.1-18.33 83.72-18.95 83.34-19.56 82.81-19.96 82.27-20.36 81.44-20.63 80.61-20.9 79.58-20.9L79.58-20.9Q77.34-20.9 73.65-18.99L73.65-18.99Q73.99-17.55 73.99-14.31L73.99-14.31 73.99 0 69.99 0 69.99-14.84Q69.99-15.48 69.94-16.05 69.89-16.63 69.6-17.58 69.31-18.53 68.82-19.2 68.33-19.87 67.32-20.39 66.3-20.9 64.94-20.9ZM108-24.58L108-24.58Q109.76-24.58 111.16-24.16 112.57-23.73 113.49-23.07 114.42-22.41 115.09-21.35 115.76-20.29 116.12-19.3 116.47-18.31 116.67-16.92 116.86-15.53 116.91-14.5 116.96-13.48 116.96-12.08L116.96-12.08 116.96-10.18 100.38-10.18Q100.38-8.86 100.98-7.56 101.58-6.25 102.67-5.16 103.75-4.08 105.52-3.39 107.29-2.71 109.44-2.71L109.44-2.71Q111.98-2.71 114.93-3.59L114.93-3.59 115.64-0.85Q111.71 0.49 107.93 0.49L107.93 0.49Q105.27 0.49 103.2-0.22 101.14-0.93 99.88-2.06 98.63-3.2 97.82-4.79 97.01-6.37 96.71-7.95 96.4-9.52 96.4-11.28L96.4-11.28Q96.4-13.99 97.06-16.24 97.72-18.48 98.85-20.01 99.97-21.53 101.47-22.58 102.97-23.63 104.62-24.11 106.27-24.58 108-24.58ZM107.15-21.12L107.15-21.12Q105-21.12 103.45-19.93 101.9-18.75 101.19-16.99 100.48-15.23 100.48-13.21L100.48-13.21 113.08-13.21Q113.08-21.12 107.15-21.12ZM134.9-24.58L134.9-24.58Q136.66-24.58 138.06-24.16 139.47-23.73 140.4-23.07 141.32-22.41 141.99-21.35 142.67-20.29 143.02-19.3 143.37-18.31 143.57-16.92 143.76-15.53 143.81-14.5 143.86-13.48 143.86-12.08L143.86-12.08 143.86-10.18 127.28-10.18Q127.28-8.86 127.88-7.56 128.48-6.25 129.57-5.16 130.65-4.08 132.42-3.39 134.19-2.71 136.34-2.71L136.34-2.71Q138.88-2.71 141.84-3.59L141.84-3.59 142.54-0.85Q138.61 0.49 134.83 0.49L134.83 0.49Q132.17 0.49 130.1-0.22 128.04-0.93 126.78-2.06 125.53-3.2 124.72-4.79 123.92-6.37 123.61-7.95 123.31-9.52 123.31-11.28L123.31-11.28Q123.31-13.99 123.96-16.24 124.62-18.48 125.75-20.01 126.87-21.53 128.37-22.58 129.87-23.63 131.52-24.11 133.17-24.58 134.9-24.58ZM134.05-21.12L134.05-21.12Q131.9-21.12 130.35-19.93 128.8-18.75 128.09-16.99 127.38-15.23 127.38-13.21L127.38-13.21 139.98-13.21Q139.98-21.12 134.05-21.12ZM154.24-24.12L154.99-22.31Q158.04-24.58 161.73-24.58L161.73-24.58Q164.27-24.58 166.34-23.63L166.34-23.63 165.12-20.43Q163.22-21.17 161.17-21.17L161.17-21.17Q158.12-21.17 155.43-19.48L155.43-19.48 155.43 0 151.43 0 151.43-24.12 154.24-24.12Z" opacity="1" transform="matrix(1,0,0,1,0,0)" fill="#ffffff" class="wordmark-text-0" data-fill-palette-color="primary" id="text-0"></path></svg></g></svg></g></svg></g></svg></g><g></g></svg></g></svg></g></svg></g></svg></g><defs></defs></svg><rect width="320" height="360" fill="none" stroke="none" visibility="hidden"></rect></g></svg></g></svg>